<svg preserveAspectRatio="none" width="100%" height="100%" overflow="visible" style="display: block;" viewBox="0 0 60 60" fill="none" xmlns="http://www.w3.org/2000/svg">
<g id="Shape">
<path id="Normal" fill-rule="evenodd" clip-rule="evenodd" d="M7.5 16.5C7.5 11.5294 11.5294 7.5 16.5 7.5C21.4706 7.5 25.5 11.5294 25.5 16.5V21H34.5V16.5C34.5 11.5294 38.5294 7.5 43.5 7.5C48.4706 7.5 52.5 11.5294 52.5 16.5C52.5 21.4706 48.4706 25.5 43.5 25.5H39V34.5H43.5C48.4706 34.5 52.5 38.5294 52.5 43.5C52.5 48.4706 48.4706 52.5 43.5 52.5C38.5294 52.5 34.5 48.4706 34.5 43.5V39H25.5V43.5C25.5 48.4706 21.4706 52.5 16.5 52.5C11.5294 52.5 7.5 48.4706 7.5 43.5C7.5 38.5294 11.5294 34.5 16.5 34.5H21V25.5H16.5C11.5294 25.5 7.5 21.4706 7.5 16.5ZM21 21V16.5C21 14.0147 18.9853 12 16.5 12C14.0147 12 12 14.0147 12 16.5C12 18.9853 14.0147 21 16.5 21H21ZM25.5 25.5V34.5H34.5V25.5H25.5ZM21 39H16.5C14.0147 39 12 41.0147 12 43.5C12 45.9853 14.0147 48 16.5 48C18.9853 48 21 45.9853 21 43.5V39ZM39 39V43.5C39 45.9853 41.0147 48 43.5 48C45.9853 48 48 45.9853 48 43.5C48 41.0147 45.9853 39 43.5 39H39ZM39 21H43.5C45.9853 21 48 18.9853 48 16.5C48 14.0147 45.9853 12 43.5 12C41.0147 12 39 14.0147 39 16.5V21Z" fill="var(--fill-0, #171719)"/>
</g>
</svg>
