<svg preserveAspectRatio="none" width="100%" height="100%" overflow="visible" style="display: block;" viewBox="0 0 60 60" fill="none" xmlns="http://www.w3.org/2000/svg">
<g id="Shape">
<path id="Normal" fill-rule="evenodd" clip-rule="evenodd" d="M39.3835 9.75164C40.3097 7.12911 42.8104 5.25002 45.75 5.25002C49.4779 5.25002 52.5 8.27209 52.5 12C52.5 15.7279 49.4779 18.75 45.75 18.75C42.8117 18.75 40.3119 16.8726 39.3848 14.2519C38.1956 14.2567 37.2927 14.2738 36.5498 14.3345C35.5634 14.4151 35.0589 14.5612 34.707 14.7405C33.8603 15.1719 33.1719 15.8603 32.7405 16.7071C32.5612 17.059 32.4151 17.5634 32.3345 18.5499C32.2517 19.5626 32.25 20.8727 32.25 22.8V27.75H39.3841C40.3107 25.1283 42.811 23.25 45.75 23.25C49.4779 23.25 52.5 26.2721 52.5 30C52.5 33.7279 49.4779 36.75 45.75 36.75C42.811 36.75 40.3107 34.8717 39.3841 32.25H32.25V37.2C32.25 39.1273 32.2517 40.4375 32.3345 41.4502C32.4151 42.4366 32.5612 42.9411 32.7405 43.293C33.1719 44.1397 33.8603 44.8281 34.707 45.2595C35.0589 45.4388 35.5634 45.5849 36.5498 45.6655C37.2927 45.7262 38.1956 45.7433 39.3848 45.7481C40.3119 43.1274 42.8117 41.25 45.75 41.25C49.4779 41.25 52.5 44.2721 52.5 48C52.5 51.7279 49.4779 54.75 45.75 54.75C42.8104 54.75 40.3097 52.8709 39.3835 50.2484C38.1521 50.2436 37.0908 50.2247 36.1834 50.1506C34.9187 50.0472 33.7561 49.8255 32.6641 49.2691C30.9706 48.4062 29.5938 47.0294 28.7309 45.3359C28.1745 44.2439 27.9528 43.0813 27.8494 41.8166C27.7499 40.5989 27.75 39.1041 27.75 37.2929V32.25H20.6159C19.6893 34.8717 17.189 36.75 14.25 36.75C10.5221 36.75 7.5 33.7279 7.5 30C7.5 26.2721 10.5221 23.25 14.25 23.25C17.189 23.25 19.6893 25.1283 20.6159 27.75H27.75V22.7071C27.75 20.8959 27.7499 19.4011 27.8494 18.1834C27.9528 16.9187 28.1745 15.7561 28.7309 14.6641C29.5938 12.9706 30.9706 11.5938 32.6641 10.731C33.7561 10.1746 34.9187 9.95278 36.1834 9.84945C37.0908 9.77531 38.1521 9.75644 39.3835 9.75164ZM45.75 9.75002C44.5074 9.75002 43.5 10.7574 43.5 12C43.5 13.2427 44.5074 14.25 45.75 14.25C46.9926 14.25 48 13.2427 48 12C48 10.7574 46.9926 9.75002 45.75 9.75002ZM14.25 27.75C13.0074 27.75 12 28.7574 12 30C12 31.2427 13.0074 32.25 14.25 32.25C15.4926 32.25 16.5 31.2427 16.5 30C16.5 28.7574 15.4926 27.75 14.25 27.75ZM45.75 27.75C44.5074 27.75 43.5 28.7574 43.5 30C43.5 31.2427 44.5074 32.25 45.75 32.25C46.9926 32.25 48 31.2427 48 30C48 28.7574 46.9926 27.75 45.75 27.75ZM45.75 45.75C44.5074 45.75 43.5 46.7574 43.5 48C43.5 49.2427 44.5074 50.25 45.75 50.25C46.9926 50.25 48 49.2427 48 48C48 46.7574 46.9926 45.75 45.75 45.75Z" fill="var(--fill-0, #171719)"/>
</g>
</svg>
