<svg preserveAspectRatio="none" width="100%" height="100%" overflow="visible" style="display: block;" viewBox="0 0 60 60" fill="none" xmlns="http://www.w3.org/2000/svg">
<g id="Shape">
<g id="Normal">
<path d="M20.4571 7.5H39.5429C41.3541 7.49997 42.8489 7.49995 44.0666 7.59944C45.3313 7.70277 46.4939 7.92454 47.5859 8.48094C49.2794 9.3438 50.6562 10.7206 51.5191 12.4141C52.0755 13.5061 52.2972 14.6687 52.4006 15.9334C52.5001 17.1511 52.5 18.6459 52.5 20.4571V39.5429C52.5 41.3541 52.5001 42.8489 52.4006 44.0666C52.2972 45.3313 52.0755 46.4939 51.5191 47.5859C50.6562 49.2794 49.2794 50.6562 47.5859 51.5191C46.4939 52.0755 45.3313 52.2972 44.0666 52.4006C42.8489 52.5001 41.3541 52.5 39.5429 52.5H39C37.7574 52.5 36.75 51.4926 36.75 50.25C36.75 49.0074 37.7574 48 39 48H39.45C41.3773 48 42.6875 47.9983 43.7002 47.9155C44.6866 47.8349 45.1911 47.6888 45.543 47.5095C46.3897 47.0781 47.0781 46.3897 47.5095 45.543C47.6888 45.1911 47.8349 44.6866 47.9155 43.7002C47.9983 42.6875 48 41.3773 48 39.45V20.55C48 18.6227 47.9983 17.3125 47.9155 16.2998C47.8349 15.3134 47.6888 14.8089 47.5095 14.457C47.0781 13.6103 46.3897 12.9219 45.543 12.4905C45.1911 12.3112 44.6866 12.1651 43.7002 12.0845C42.6875 12.0018 41.3773 12 39.45 12H20.55C18.6227 12 17.3125 12.0018 16.2998 12.0845C15.3134 12.1651 14.8089 12.3112 14.457 12.4905C13.6103 12.9219 12.9219 13.6103 12.4905 14.457C12.3112 14.8089 12.1651 15.3134 12.0845 16.2998C12.0018 17.3125 12 18.6227 12 20.55V21C12 22.2426 10.9926 23.25 9.75 23.25C8.50736 23.25 7.5 22.2426 7.5 21L7.5 20.4571C7.49997 18.6459 7.49995 17.1511 7.59944 15.9334C7.70277 14.6687 7.92454 13.5061 8.48095 12.4141C9.34381 10.7206 10.7206 9.3438 12.4141 8.48094C13.5061 7.92454 14.6687 7.70277 15.9334 7.59944C17.1511 7.49995 18.6459 7.49997 20.4571 7.5Z" fill="var(--fill-0, #171719)"/>
<path fill-rule="evenodd" clip-rule="evenodd" d="M27.75 18.75C27.75 17.5074 28.7574 16.5 30 16.5H41.25C42.4926 16.5 43.5 17.5074 43.5 18.75V30C43.5 31.2426 42.4926 32.25 41.25 32.25C40.0074 32.25 39 31.2426 39 30V24.182L31.5905 31.5914C31.9673 32.3947 32.113 33.2258 32.1812 34.0612C32.2501 34.904 32.25 35.9272 32.25 37.1133V43.1367C32.25 44.3228 32.2501 45.346 32.1812 46.1888C32.1085 47.0783 31.9481 47.9631 31.5143 48.8144C30.8672 50.0845 29.8345 51.1172 28.5644 51.7643C27.7131 52.1981 26.8283 52.3585 25.9388 52.4312C25.096 52.5001 24.0728 52.5 22.8867 52.5H16.8633C15.6772 52.5 14.654 52.5001 13.8112 52.4312C12.9217 52.3585 12.0369 52.1981 11.1856 51.7643C9.91548 51.1172 8.88286 50.0845 8.23571 48.8144C7.80192 47.9631 7.64146 47.0783 7.56879 46.1888C7.49993 45.346 7.49996 44.3228 7.5 43.1367V37.1133C7.49996 35.9272 7.49993 34.904 7.56879 34.0612C7.64146 33.1717 7.80192 32.2869 8.23571 31.4356C8.88286 30.1655 9.91547 29.1329 11.1856 28.4857C12.0369 28.0519 12.9217 27.8915 13.8112 27.8188C14.654 27.7499 15.6772 27.75 16.8633 27.75H22.8867C24.0728 27.75 25.096 27.7499 25.9388 27.8188C26.7742 27.887 27.6053 28.0327 28.4086 28.4095L35.818 21H30C28.7574 21 27.75 19.9926 27.75 18.75ZM14.1776 32.3038C13.5664 32.3538 13.3398 32.4386 13.2285 32.4952C12.8052 32.711 12.461 33.0552 12.2452 33.4785C12.1886 33.5898 12.1038 33.8164 12.0538 34.4276C12.0018 35.0651 12 35.9028 12 37.2V43.05C12 44.3472 12.0018 45.1849 12.0538 45.8224C12.1038 46.4336 12.1886 46.6602 12.2452 46.7715C12.461 47.1948 12.8052 47.5391 13.2285 47.7548C13.3398 47.8115 13.5664 47.8962 14.1776 47.9462C14.8151 47.9983 15.6528 48 16.95 48H22.8C24.0972 48 24.9349 47.9983 25.5724 47.9462C26.1836 47.8962 26.4102 47.8115 26.5215 47.7548C26.9448 47.5391 27.2891 47.1948 27.5048 46.7715C27.5615 46.6602 27.6462 46.4336 27.6962 45.8224C27.7483 45.1849 27.75 44.3472 27.75 43.05V37.2C27.75 35.9028 27.7483 35.0651 27.6962 34.4276C27.6462 33.8164 27.5615 33.5898 27.5048 33.4785C27.2891 33.0552 26.9448 32.711 26.5215 32.4952C26.4102 32.4386 26.1836 32.3538 25.5724 32.3038C24.9349 32.2518 24.0972 32.25 22.8 32.25H16.95C15.6528 32.25 14.8151 32.2518 14.1776 32.3038Z" fill="var(--fill-0, #171719)"/>
</g>
</g>
</svg>
