<svg preserveAspectRatio="none" width="100%" height="100%" overflow="visible" style="display: block;" viewBox="0 0 60 60" fill="none" xmlns="http://www.w3.org/2000/svg">
<g id="Shape">
<g id="Normal">
<path fill-rule="evenodd" clip-rule="evenodd" d="M29.3778 5.44072C29.7891 5.36355 30.2112 5.36355 30.6225 5.44072C31.1095 5.53209 31.5439 5.75378 31.7538 5.8609C31.7754 5.87193 31.7947 5.88175 31.8113 5.89009L53.5064 16.7376C54.2686 17.1187 54.7501 17.8978 54.7501 18.7501C54.7501 19.6023 54.2686 20.3814 53.5064 20.7625L31.8113 31.61C31.7947 31.6184 31.7754 31.6282 31.7538 31.6392C31.5439 31.7463 31.1095 31.968 30.6225 32.0594C30.2112 32.1366 29.7891 32.1366 29.3778 32.0594C28.8908 31.968 28.4564 31.7463 28.2465 31.6392C28.2248 31.6282 28.2056 31.6184 28.1889 31.61L6.4939 20.7625C5.73163 20.3814 5.25013 19.6023 5.25013 18.7501C5.25013 17.8978 5.73163 17.1187 6.4939 16.7376L28.1889 5.89009C28.2056 5.88175 28.2248 5.87193 28.2464 5.8609C28.4564 5.75378 28.8908 5.53209 29.3778 5.44072ZM30.0001 10.0156L47.469 18.7501L30.0001 27.4845L12.5313 18.7501L30.0001 10.0156ZM29.556 27.7041C29.5555 27.7043 29.5555 27.7043 29.556 27.7041ZM30.4442 27.704C30.4447 27.7042 30.4447 27.7042 30.4442 27.704Z" fill="var(--fill-0, #171719)"/>
<path fill-rule="evenodd" clip-rule="evenodd" d="M5.48767 28.9938C6.04339 27.8824 7.39491 27.4319 8.50636 27.9876L30.0001 38.7345L51.4939 27.9876C52.6053 27.4319 53.9569 27.8824 54.5126 28.9938C55.0683 30.1053 54.6178 31.4568 53.5064 32.0125L31.8113 42.86C31.7947 42.8684 31.7754 42.8782 31.7538 42.8892C31.5439 42.9963 31.1095 43.218 30.6225 43.3094C30.2112 43.3866 29.7891 43.3866 29.3778 43.3094C28.8908 43.218 28.4564 42.9963 28.2465 42.8892C28.2248 42.8782 28.2056 42.8684 28.1889 42.86L6.4939 32.0125C5.38244 31.4568 4.93194 30.1053 5.48767 28.9938ZM29.556 38.9541C29.5555 38.9543 29.5555 38.9543 29.556 38.9541ZM30.4442 38.954C30.4447 38.9542 30.4447 38.9542 30.4442 38.954Z" fill="var(--fill-0, #171719)"/>
<path d="M5.48767 40.2438C6.04339 39.1324 7.39491 38.6819 8.50636 39.2376L30.0001 49.9845L51.4939 39.2376C52.6053 38.6819 53.9569 39.1324 54.5126 40.2438C55.0683 41.3553 54.6178 42.7068 53.5064 43.2625L31.8113 54.11C31.7947 54.1184 31.7754 54.1282 31.7538 54.1392C31.5439 54.2463 31.1095 54.468 30.6225 54.5594C30.2112 54.6366 29.7891 54.6366 29.3778 54.5594C28.8908 54.468 28.4564 54.2463 28.2464 54.1392C28.2248 54.1282 28.2056 54.1184 28.1889 54.11L6.4939 43.2625C5.38244 42.7068 4.93194 41.3553 5.48767 40.2438Z" fill="var(--fill-0, #171719)"/>
</g>
</g>
</svg>
