<svg xmlns="http://www.w3.org/2000/svg" viewBox="0 0 3074 600" width="3074" height="600"><rect width="3074" height="600" fill="#fff"/><path d="M0.00 450.00L0.00 21.60L295.80 21.60L295.80 86.40L75.00 86.40L75.00 198.60L268.80 198.60L268.80 259.80L75.00 259.80L75.00 450.00L0.00 450.00M325.80 450.00L325.80 21.60L530.40 21.60Q601.20 21.60 636.60 52.20Q672.00 82.80 672.00 137.40L672.00 137.40Q672.00 168.00 663.00 188.10Q654.00 208.20 642.00 220.50Q630.00 232.80 618.30 238.20Q606.60 243.60 601.20 245.40L601.20 245.40L601.20 246.60Q610.80 247.80 621.90 252.60Q633.00 257.40 642.60 267.90Q652.20 278.40 658.50 295.20Q664.80 312.00 664.80 337.20L664.80 337.20Q664.80 375.00 670.50 405.90Q676.20 436.80 688.20 450.00L688.20 450.00L607.80 450.00Q599.40 436.20 597.90 419.40Q596.40 402.60 596.40 387.00L596.40 387.00Q596.40 357.60 592.80 336.30Q589.20 315.00 579.60 300.90Q570.00 286.80 553.50 280.20Q537.00 273.60 511.20 273.60L511.20 273.60L400.80 273.60L400.80 450.00L325.80 450.00M400.80 82.80L400.80 216.60L523.80 216.60Q559.80 216.60 578.40 199.50Q597.00 182.40 597.00 148.20L597.00 148.20Q597.00 127.80 591.00 114.90Q585.00 102.00 574.50 94.80Q564.00 87.60 550.50 85.20Q537.00 82.80 522.60 82.80L522.60 82.80L400.80 82.80M900.60 72.60L900.60 72.60Q866.40 72.60 841.50 86.40Q816.60 100.20 801.00 123.30Q785.40 146.40 777.90 175.80Q770.40 205.20 770.40 235.80L770.40 235.80Q770.40 266.40 777.90 295.80Q785.40 325.20 801.00 348.30Q816.60 371.40 841.50 385.20Q866.40 399.00 900.60 399.00L900.60 399.00Q934.80 399.00 959.70 385.20Q984.60 371.40 1000.20 348.30Q1015.80 325.20 1023.30 295.80Q1030.80 266.40 1030.80 235.80L1030.80 235.80Q1030.80 205.20 1023.30 175.80Q1015.80 146.40 1000.20 123.30Q984.60 100.20 959.70 86.40Q934.80 72.60 900.60 72.60M900.60 11.40L900.60 11.40Q948.60 11.40 986.70 29.40Q1024.80 47.40 1051.20 78.00Q1077.60 108.60 1091.70 149.40Q1105.80 190.20 1105.80 235.80L1105.80 235.80Q1105.80 282.00 1091.70 322.80Q1077.60 363.60 1051.20 394.20Q1024.80 424.80 986.70 442.50Q948.60 460.20 900.60 460.20L900.60 460.20Q852.60 460.20 814.50 442.50Q776.40 424.80 750.00 394.20Q723.60 363.60 709.50 322.80Q695.40 282.00 695.40 235.80L695.40 235.80Q695.40 190.20 709.50 149.40Q723.60 108.60 750.00 78.00Q776.40 47.40 814.50 29.40Q852.60 11.40 900.60 11.40M1141.20 450.00L1141.20 21.60L1220.40 21.60L1416.00 337.20L1417.20 337.20L1417.20 21.60L1488.60 21.60L1488.60 450.00L1409.40 450.00L1214.40 135.00L1212.60 135.00L1212.60 450.00L1141.20 450.00M1506.60 86.40L1506.60 21.60L1853.40 21.60L1853.40 86.40L1717.20 86.40L1717.20 450.00L1642.20 450.00L1642.20 86.40L1506.60 86.40M1873.20 450.00L1873.20 21.60L1948.20 21.60L1948.20 450.00L1873.20 450.00M2010.00 450.00L2010.00 21.60L2318.40 21.60L2318.40 86.40L2085.00 86.40L2085.00 198.60L2301.00 198.60L2301.00 259.80L2085.00 259.80L2085.00 385.20L2322.60 385.20L2322.60 450.00L2010.00 450.00M2358.00 450.00L2358.00 21.60L2562.60 21.60Q2633.40 21.60 2668.80 52.20Q2704.20 82.80 2704.20 137.40L2704.20 137.40Q2704.20 168.00 2695.20 188.10Q2686.20 208.20 2674.20 220.50Q2662.20 232.80 2650.50 238.20Q2638.80 243.60 2633.40 245.40L2633.40 245.40L2633.40 246.60Q2643.00 247.80 2654.10 252.60Q2665.20 257.40 2674.80 267.90Q2684.40 278.40 2690.70 295.20Q2697.00 312.00 2697.00 337.20L2697.00 337.20Q2697.00 375.00 2702.70 405.90Q2708.40 436.80 2720.40 450.00L2720.40 450.00L2640.00 450.00Q2631.60 436.20 2630.10 419.40Q2628.60 402.60 2628.60 387.00L2628.60 387.00Q2628.60 357.60 2625.00 336.30Q2621.40 315.00 2611.80 300.90Q2602.20 286.80 2585.70 280.20Q2569.20 273.60 2543.40 273.60L2543.40 273.60L2433.00 273.60L2433.00 450.00L2358.00 450.00M2433.00 82.80L2433.00 216.60L2556.00 216.60Q2592.00 216.60 2610.60 199.50Q2629.20 182.40 2629.20 148.20L2629.20 148.20Q2629.20 127.80 2623.20 114.90Q2617.20 102.00 2606.70 94.80Q2596.20 87.60 2582.70 85.20Q2569.20 82.80 2554.80 82.80L2554.80 82.80L2433.00 82.80M2724.60 307.20L2799.60 307.20Q2799.60 331.80 2808.00 349.20Q2816.40 366.60 2831.40 377.70Q2846.40 388.80 2865.90 393.90Q2885.40 399.00 2908.20 399.00L2908.20 399.00Q2932.80 399.00 2950.20 393.30Q2967.60 387.60 2978.40 378.60Q2989.20 369.60 2994.00 357.90Q2998.80 346.20 2998.80 334.20L2998.80 334.20Q2998.80 309.60 2987.70 297.90Q2976.60 286.20 2963.40 281.40L2963.40 281.40Q2940.60 273.00 2910.30 265.50Q2880.00 258.00 2835.60 246.00L2835.60 246.00Q2808.00 238.80 2789.70 227.10Q2771.40 215.40 2760.60 201.00Q2749.80 186.60 2745.30 170.40Q2740.80 154.20 2740.80 137.40L2740.80 137.40Q2740.80 105.00 2754.30 81.30Q2767.80 57.60 2790.00 42.00Q2812.20 26.40 2840.40 18.90Q2868.60 11.40 2897.40 11.40L2897.40 11.40Q2931.00 11.40 2960.70 20.10Q2990.40 28.80 3012.90 46.20Q3035.40 63.60 3048.60 89.10Q3061.80 114.60 3061.80 148.20L3061.80 148.20L2986.80 148.20Q2983.80 106.80 2958.60 89.70Q2933.40 72.60 2894.40 72.60L2894.40 72.60Q2881.20 72.60 2867.40 75.30Q2853.60 78.00 2842.20 84.30Q2830.80 90.60 2823.30 101.40Q2815.80 112.20 2815.80 128.40L2815.80 128.40Q2815.80 151.20 2829.90 164.10Q2844.00 177.00 2866.80 183.60L2866.80 183.60Q2869.20 184.20 2885.70 188.70Q2902.20 193.20 2922.60 198.60Q2943.00 204.00 2962.50 209.10Q2982.00 214.20 2990.40 216.60L2990.40 216.60Q3011.40 223.20 3027.00 234.60Q3042.60 246.00 3053.10 260.70Q3063.60 275.40 3068.70 292.20Q3073.80 309.00 3073.80 325.80L3073.80 325.80Q3073.80 361.80 3059.10 387.30Q3044.40 412.80 3020.40 429.00Q2996.40 445.20 2965.80 452.70Q2935.20 460.20 2903.40 460.20L2903.40 460.20Q2866.80 460.20 2834.40 451.20Q2802.00 442.20 2778.00 423.60Q2754.00 405.00 2739.60 375.90Q2725.20 346.80 2724.60 307.20L2724.60 307.20" fill="#000"/></svg>