<svg xmlns="http://www.w3.org/2000/svg" viewBox="0 0 3236 600" width="3236" height="600"><rect width="3236" height="600" fill="#fff"/><path d="M0.00 450.00L0.00 21.60L105.60 21.60L223.80 357.00L225.00 357.00L340.20 21.60L444.60 21.60L444.60 450.00L373.20 450.00L373.20 119.40L372.00 119.40L253.20 450.00L191.40 450.00L72.60 119.40L71.40 119.40L71.40 450.00L0.00 450.00M454.80 450.00L619.20 21.60L699.00 21.60L864.00 450.00L783.60 450.00L743.40 336.60L572.40 336.60L532.20 450.00L454.80 450.00M657.60 95.40L592.80 279.60L723.60 279.60L659.40 95.40L657.60 95.40M874.80 450.00L874.80 21.60L1079.40 21.60Q1150.20 21.60 1185.60 52.20Q1221.00 82.80 1221.00 137.40L1221.00 137.40Q1221.00 168.00 1212.00 188.10Q1203.00 208.20 1191.00 220.50Q1179.00 232.80 1167.30 238.20Q1155.60 243.60 1150.20 245.40L1150.20 245.40L1150.20 246.60Q1159.80 247.80 1170.90 252.60Q1182.00 257.40 1191.60 267.90Q1201.20 278.40 1207.50 295.20Q1213.80 312.00 1213.80 337.20L1213.80 337.20Q1213.80 375.00 1219.50 405.90Q1225.20 436.80 1237.20 450.00L1237.20 450.00L1156.80 450.00Q1148.40 436.20 1146.90 419.40Q1145.40 402.60 1145.40 387.00L1145.40 387.00Q1145.40 357.60 1141.80 336.30Q1138.20 315.00 1128.60 300.90Q1119.00 286.80 1102.50 280.20Q1086.00 273.60 1060.20 273.60L1060.20 273.60L949.80 273.60L949.80 450.00L874.80 450.00M949.80 82.80L949.80 216.60L1072.80 216.60Q1108.80 216.60 1127.40 199.50Q1146.00 182.40 1146.00 148.20L1146.00 148.20Q1146.00 127.80 1140.00 114.90Q1134.00 102.00 1123.50 94.80Q1113.00 87.60 1099.50 85.20Q1086.00 82.80 1071.60 82.80L1071.60 82.80L949.80 82.80M1267.20 450.00L1267.20 21.60L1342.20 21.60L1342.20 216.60L1533.00 21.60L1625.40 21.60L1454.40 192.60L1637.40 450.00L1543.80 450.00L1403.40 245.40L1342.20 306.00L1342.20 450.00L1267.20 450.00M1648.20 450.00L1648.20 21.60L1956.60 21.60L1956.60 86.40L1723.20 86.40L1723.20 198.60L1939.20 198.60L1939.20 259.80L1723.20 259.80L1723.20 385.20L1960.80 385.20L1960.80 450.00L1648.20 450.00M1955.40 86.40L1955.40 21.60L2302.20 21.60L2302.20 86.40L2166.00 86.40L2166.00 450.00L2091.00 450.00L2091.00 86.40L1955.40 86.40M2322.00 450.00L2322.00 21.60L2397.00 21.60L2397.00 450.00L2322.00 450.00M2455.80 450.00L2455.80 21.60L2535.00 21.60L2730.60 337.20L2731.80 337.20L2731.80 21.60L2803.20 21.60L2803.20 450.00L2724.00 450.00L2529.00 135.00L2527.20 135.00L2527.20 450.00L2455.80 450.00M3235.80 224.40L3235.80 450.00L3187.80 450.00L3176.40 399.60Q3146.40 433.80 3116.40 447.00Q3086.40 460.20 3047.40 460.20L3047.40 460.20Q2999.40 460.20 2961.30 442.50Q2923.20 424.80 2896.80 394.20Q2870.40 363.60 2856.30 322.80Q2842.20 282.00 2842.20 235.80L2842.20 235.80Q2842.20 190.20 2856.30 149.40Q2870.40 108.60 2896.80 78.00Q2923.20 47.40 2961.30 29.40Q2999.40 11.40 3047.40 11.40L3047.40 11.40Q3082.20 11.40 3113.70 20.70Q3145.20 30.00 3169.80 48.30Q3194.40 66.60 3210.60 94.20Q3226.80 121.80 3231.00 157.80L3231.00 157.80L3157.80 157.80Q3154.80 136.80 3144.90 120.90Q3135.00 105.00 3120.00 94.20Q3105.00 83.40 3086.40 78.00Q3067.80 72.60 3047.40 72.60L3047.40 72.60Q3013.20 72.60 2988.30 86.40Q2963.40 100.20 2947.80 123.30Q2932.20 146.40 2924.70 175.80Q2917.20 205.20 2917.20 235.80L2917.20 235.80Q2917.20 266.40 2924.70 295.80Q2932.20 325.20 2947.80 348.30Q2963.40 371.40 2988.30 385.20Q3013.20 399.00 3047.40 399.00L3047.40 399.00Q3076.20 399.60 3098.40 391.50Q3120.60 383.40 3135.90 368.10Q3151.20 352.80 3159.00 330.60Q3166.80 308.40 3167.40 281.40L3167.40 281.40L3053.40 281.40L3053.40 224.40L3235.80 224.40" fill="#000"/></svg>